<svg xmlns="http://www.w3.org/2000/svg" width="34" height="34" fill="none" viewBox="0 0 34 34"><path fill="#C83895" d="M28.6998 16.9998C28.6998 10.5998 23.4998 5.2998 16.9998 5.2998C10.5998 5.2998 5.2998 10.5998 5.2998 16.9998C5.2998 23.3998 10.5998 28.6998 16.9998 28.6998C23.3998 28.6998 28.6998 23.3998 28.6998 16.9998ZM7.7998 16.9998C7.7998 11.8998 11.8998 7.7998 16.9998 7.7998C22.0998 7.7998 26.1998 11.8998 26.1998 16.9998C26.1998 22.0998 22.0998 26.1998 16.9998 26.1998C11.8998 26.1998 7.7998 22.0998 7.7998 16.9998Z"/><path fill="#C83895" fill-rule="evenodd" d="M16.9998 18.6998C17.9998 18.6998 18.6998 17.8998 18.6998 16.9998C18.6998 15.9998 17.8998 15.2998 16.9998 15.2998C15.9998 15.2998 15.2998 16.0998 15.2998 16.9998C15.2998 17.9998 15.9998 18.6998 16.9998 18.6998Z" clip-rule="evenodd"/></svg>